<?xml version="1.0" encoding="UTF-8"?>
<svg xmlns="http://www.w3.org/2000/svg" viewBox="0 0 462 462">
  <defs>
    <style>
      .cls-1, .cls-2, .cls-3, .cls-4 {
        stroke-width: 0px;
      }

      .cls-2 {
        fill: #b668e2;
      }

      .cls-3 {
        fill: #eb77b4;
      }

      .cls-4 {
        fill: #ffcd00;
      }
    </style>
  </defs>
  <g id="square">
    <g>
      <rect class="cls-3" x="10" y="10" width="442" height="442" rx="120" ry="120"/>
      <path class="cls-1" d="M332,20c29.38214,0,57.00543,11.442,77.7818,32.21822,20.77618,20.77634,32.2182,48.39967,32.2182,77.78178v202c0,29.38211-11.44202,57.00543-32.2182,77.7818-20.77637,20.77618-48.39966,32.2182-77.7818,32.2182h-202c-29.38214,0-57.00543-11.44202-77.7818-32.2182-20.77621-20.77637-32.2182-48.39969-32.2182-77.7818v-202c0-29.38211,11.44199-57.00545,32.2182-77.78178,20.77637-20.77621,48.39966-32.21822,77.7818-32.21822h202M332,0h-202C58.203,0,0,58.203,0,130v202c0,71.797,58.203,130,130,130h202c71.797,0,130-58.203,130-130v-202C462,58.203,403.797,0,332,0h0Z"/>
    </g>
  </g>
  <g id="scircle">
    <g>
      <circle class="cls-4" cx="349" cy="87" r="28"/>
      <path class="cls-1" d="M349,65c12.13086,0,22,9.86916,22,22s-9.86914,22-22,22-22-9.86916-22-22,9.86914-22,22-22M349,53c-18.77771,0-34,15.22231-34,34s15.22229,34,34,34,34-15.22231,34-34-15.22229-34-34-34h0Z"/>
    </g>
  </g>
  <g id="lcircle">
    <g>
      <circle class="cls-2" cx="230.5" cy="231.5" r="115.5"/>
      <path class="cls-1" d="M230.5,126c58.17291,0,105.5,47.32709,105.5,105.5s-47.32709,105.5-105.5,105.5-105.5-47.32709-105.5-105.5,47.32709-105.5,105.5-105.5M230.5,106c-69.31165,0-125.5,56.18826-125.5,125.5s56.18835,125.5,125.5,125.5,125.5-56.18826,125.5-125.5-56.18835-125.5-125.5-125.5h0Z"/>
    </g>
  </g>
</svg>