<?xml version="1.0" encoding="UTF-8"?>
<svg id="up" xmlns="http://www.w3.org/2000/svg" viewBox="0 0 591.04582 535.20378">
  <defs>
    <style>
      .cls-1 {
        fill: red;
      }

      .cls-1, .cls-2 {
        stroke-width: 0px;
      }

      .cls-3 {
        fill: #fff;
        font-family: BerlinSansFBDemi-Bold, 'Berlin Sans FB Demi';
        font-size: 54.16957px;
        font-weight: 700;
      }

      .cls-2 {
        fill: blue;
      }

    </style>

  </defs>
  <g id="polygon">
    <g>
      <path class="cls-2" d="M191.31979,526.70415c-27.99707,0-54.08545-15.0625-68.08398-39.30859L19.03268,306.9102c-13.99854-24.24609-13.99854-54.37061,0-78.6167L123.23581,47.80864c13.99854-24.24658,40.08691-39.30859,68.08398-39.30859h208.40625c27.99707,0,54.08594,15.06201,68.08398,39.30859l104.20312,180.48486c13.99805,24.24609,13.99805,54.37061,0,78.6167l-104.20312,180.48535c-13.99805,24.24609-40.08691,39.30859-68.08398,39.30859h-208.40625Z"/>
      <path class="cls-1" d="M399.72574,17c24.97034,0,48.2381,13.43365,60.72333,35.05859l104.20282,180.4847c12.48517,21.62494,12.48517,48.49225,0,70.11719l-104.20282,180.48471c-12.48523,21.62494-35.75299,35.05859-60.72333,35.05859h-208.40564c-24.97034,0-48.2381-13.43365-60.7233-35.05859L26.39398,302.66048c-12.48517-21.62494-12.48517-48.49225,0-70.11719L130.5968,52.05859c12.4852-21.62495,35.75296-35.05859,60.7233-35.05859h208.40564M399.72574,0h-208.40564c-31.12402,0-59.88376,16.60447-75.44577,43.55859L11.67151,224.04329c-15.56201,26.95413-15.56201,60.16306,0,87.11719l104.20282,180.48471c15.56201,26.9541,44.32175,43.55859,75.44577,43.55859h208.40564c31.12402,0,59.88379-16.60449,75.44574-43.55859l104.20288-180.48471c15.56195-26.95413,15.56195-60.16306,0-87.11719l-104.20288-180.4847C459.60953,16.60447,430.84976,0,399.72574,0h0Z"/>
    </g>
  </g>
  <g id="Bye">
    <text class="cls-3" transform="translate(163.52292 96.28862)"><tspan x="0" y="0">Up &amp; Down</tspan></text>
  </g>
  <g id="rec1">
    <path class="cls-1" d="M156.52292,216.00005h74.5c6.34702,0,11.5,5.15298,11.5,11.5v293c0,6.34702-5.15298,11.5-11.5,11.5h-57.44268c-9.41419,0-17.05732-7.64313-17.05732-17.05732V216.00005h0Z"/>
    <path class="cls-1" d="M373.02292,285.00005h63.5v225.25478c0,9.79386-7.95137,17.74522-17.74522,17.74522h-45.75478c-6.34702,0-11.5-5.15298-11.5-11.5v-220c0-6.34702,5.15298-11.5,11.5-11.5Z"/>
  </g>
  <g id="rec2">
    <path class="cls-1" d="M270.02292,134.00005h74.5v389.5c0,6.34702-5.15298,11.5-11.5,11.5h-63c-6.34702,0-11.5-5.15298-11.5-11.5V145.50005c0-6.34702,5.15298-11.5,11.5-11.5Z"/>
  </g>
</svg>